<?xml version="1.0" encoding="UTF-8" standalone="no"?>
<svg
   class="icon icon-tabler icon-tabler-folders-off"
   width="24"
   height="24"
   viewBox="0 0 24 24"
   stroke-width="2"
   stroke="currentColor"
   fill="none"
   stroke-linecap="round"
   stroke-linejoin="round"
   version="1.1"
   id="svg71"
   sodipodi:docname="tabler-icons-folders-off.svg"
   inkscape:version="1.2.1 (9c6d41e410, 2022-07-14)"
   inkscape:export-filename="tabler-icons-folders-off.png"
   inkscape:export-xdpi="720"
   inkscape:export-ydpi="720"
   xmlns:inkscape="http://www.inkscape.org/namespaces/inkscape"
   xmlns:sodipodi="http://sodipodi.sourceforge.net/DTD/sodipodi-0.dtd"
   xmlns="http://www.w3.org/2000/svg"
   xmlns:svg="http://www.w3.org/2000/svg">
  <defs
     id="defs75" />
  <sodipodi:namedview
     id="namedview73"
     pagecolor="#ffffff"
     bordercolor="#000000"
     borderopacity="0.25"
     inkscape:showpageshadow="2"
     inkscape:pageopacity="0.0"
     inkscape:pagecheckerboard="0"
     inkscape:deskcolor="#d1d1d1"
     showgrid="false"
     inkscape:zoom="4.1770834"
     inkscape:cx="-53.266832"
     inkscape:cy="-13.406484"
     inkscape:window-width="1920"
     inkscape:window-height="1011"
     inkscape:window-x="26"
     inkscape:window-y="23"
     inkscape:window-maximized="0"
     inkscape:current-layer="svg71" />
  <path
     stroke="none"
     d="M0 0h24v24H0z"
     fill="none"
     id="path63" />
  <path
     d="M17 17h-8a2 2 0 0 1 -2 -2v-8m1.177 -2.823c.251 -.114 .53 -.177 .823 -.177h3l2 2h5a2 2 0 0 1 2 2v7c0 .55 -.223 1.05 -.583 1.411"
     id="path65"
     style="fill:none;stroke:#0060df;stroke-opacity:1;opacity:1" />
  <path
     d="M17 17v2a2 2 0 0 1 -2 2h-10a2 2 0 0 1 -2 -2v-9a2 2 0 0 1 2 -2h2"
     id="path67"
     style="fill:none;stroke:#0060df;stroke-opacity:1;stroke-linejoin:bevel;opacity:0.4" />
  <path
     d="M3 3l18 18"
     id="path69"
     style="fill:none;stroke:#0060df;stroke-opacity:1" />
</svg>
